<svg width="115" height="105" viewBox="0 0 115 105" fill="none" xmlns="http://www.w3.org/2000/svg">
<g id="Group 13">
<path id="Vector 40" d="M21.0649 55.735C21.0649 55.735 15.9942 59.1079 12.6042 58.5774C7.90558 57.842 3.00014 49.0703 3.00014 49.0703" stroke="#31353A" stroke-width="4.22621" stroke-linecap="round"/>
<path id="Vector 41" d="M109.787 76.0644C109.787 76.0644 108.925 71.5262 106.588 66.5932C104.485 62.1534 99.5003 55.9926 99.5003 55.9926" stroke="#31353A" stroke-width="4.22621" stroke-linecap="round"/>
<path id="Vector 42" d="M50.8335 77.7292L48.8145 101.851H43.5013" stroke="#31353A" stroke-width="4.22621" stroke-linecap="round"/>
<path id="Vector 43" d="M72.7235 77.7292L74.7133 101.957H79.9494" stroke="#31353A" stroke-width="4.22621" stroke-linecap="round"/>
<path id="Ellipse 37" d="M14.2884 51.8747C14.2884 76.9109 34.8178 90.6639 59.854 90.6639C84.8901 90.6639 104.952 76.9109 104.952 51.8747C104.952 26.8386 84.8901 0 59.854 0C34.8178 0 14.2884 26.8386 14.2884 51.8747Z" fill="#9FD5EC"/>
<circle id="Ellipse 38" cx="3.03771" cy="3.03771" r="3.03771" transform="matrix(-1 0 0 1 86.9596 45.3317)" fill="#31353A"/>
<circle id="Ellipse 39" cx="3.03771" cy="3.03771" r="3.03771" transform="matrix(-1 0 0 1 39.2909 45.3317)" fill="#31353A"/>
<path id="Vector 44" d="M64.9948 51.4076C64.9948 51.4076 62.1961 53.7681 59.3867 53.7443C56.6053 53.7207 53.9433 51.4076 53.9433 51.4076" stroke="#31353A" stroke-width="2.6222" stroke-linecap="round"/>
</g>
</svg>
