<svg width="167" height="168" viewBox="0 0 167 168" fill="none" xmlns="http://www.w3.org/2000/svg">
<g id="Group 15">
<path id="Vector 36" d="M2.9999 103.926C2.9999 103.926 9.77993 107.935 18.208 110.537C25.7932 112.88 37.8819 113.538 37.8819 113.538" stroke="#31353A" stroke-width="6.01887" stroke-linecap="round"/>
<path id="Vector 50" d="M161.891 54.4406C161.891 54.4406 159.557 61.5386 154.905 68.85C150.718 75.4302 141.783 83.9642 141.783 83.9642" stroke="#31353A" stroke-width="6.01887" stroke-linecap="round"/>
<path id="Vector 37" d="M121.998 115.221L141.204 143.635L147.77 139.955" stroke="#31353A" stroke-width="6.01887" stroke-linecap="round"/>
<path id="Vector 38" d="M74.8467 130.397L72.0275 164.724H64.6088" stroke="#31353A" stroke-width="6.01887" stroke-linecap="round"/>
<path id="Ellipse 34" d="M147.363 70.4604C157.454 104.467 135.113 131.422 101.107 141.514C67.1011 151.606 34.3073 141.012 24.2155 107.006C14.1236 73.0002 30.5552 28.459 64.5613 18.3671C98.5674 8.27526 137.271 36.4543 147.363 70.4604Z" fill="#9FD5EC"/>
<circle id="Ellipse 35" cx="51.3676" cy="93.7683" r="4.30392" transform="rotate(-16.5291 51.3676 93.7683)" fill="#31353A"/>
<circle id="Ellipse 36" cx="116.115" cy="74.5529" r="4.30392" transform="rotate(-16.5291 116.115 74.5529)" fill="#31353A"/>
<path id="Subtract" fill-rule="evenodd" clip-rule="evenodd" d="M74.7935 90.1589C74.7935 90.159 74.7935 90.1591 74.7935 90.1592C76.0722 94.468 81.9991 96.5098 88.0314 94.7196C94.0638 92.9293 97.9174 87.9851 96.6387 83.6762C96.6387 83.6762 96.6387 83.6761 96.6386 83.676L74.7935 90.1589Z" fill="#31353A"/>
</g>
</svg>
