<svg width="46" height="46" viewBox="0 0 46 46" fill="none" xmlns="http://www.w3.org/2000/svg">
<g id="home">
<path id="Vector" d="M17.5084 39.8157V33.9551C17.5084 32.459 18.7301 31.2462 20.2371 31.2462H25.7459C26.4696 31.2462 27.1637 31.5316 27.6754 32.0397C28.1871 32.5477 28.4746 33.2367 28.4746 33.9551V39.8157C28.47 40.4377 28.7157 41.0358 29.1571 41.4772C29.5985 41.9186 30.1992 42.1668 30.8257 42.1668H34.5841C36.3394 42.1713 38.0244 41.4823 39.2672 40.2517C40.51 39.0211 41.2084 37.3502 41.2084 35.6077V18.9116C41.2084 17.504 40.5799 16.1689 39.4923 15.2658L26.707 5.12891C24.4829 3.35157 21.2964 3.40896 19.1387 5.26521L6.64519 15.2658C5.50617 16.1422 4.82539 17.4814 4.79175 18.9116V35.5906C4.79175 39.2225 7.75756 42.1668 11.4161 42.1668H15.0886C16.3899 42.1668 17.4475 41.1246 17.4569 39.8328L17.5084 39.8157Z" fill="white"/>
</g>
</svg>
